[img]http://img823.imageshack.us/img823/6748/daybreakersbluray320x20.png[/img]
 
http://www.imdb.com/title/tt0433362/

Source: Daybreakers.2009.720p.BluRay.x264.DTS-WiKi

Subs: Arabic, Brazilian, Croatian, Danish, Dutch, English, Estonian, Finnish, French, Greek, Hebrew, Hungarian, Norwegian, Portguese, Romanian, Serbian, Slovenian, Spanish, Swedish, Turkish and Vietnamese.

Sample and Screens included.

General
Complete name                    : Daybreakers-720p MP4 AAC BRRip 2009-CC.mp4
Format                           : MPEG-4
Format profile                   : Base Media
Codec ID                         : isom
File size                        : 1.73 GiB
Duration                         : 1h 37mn
Overall bit rate                 : 2 528 Kbps
Encoded date                     : UTC 2012-01-27 08:05:26
Tagged date                      : UTC 2012-01-27 08:05:26
Writing application              : Yamb 2.1.0.0 

Video
ID                               : 1
Format                           : AVC
Format/Info                      : Advanced Video Codec
Format profile                   : High@L3.1
Format settings, CABAC           : Yes
Format settings, ReFrames        : 5 frames
Codec ID                         : avc1
Codec ID/Info                    : Advanced Video Coding
Duration                         : 1h 37mn
Bit rate mode                    : Variable
Bit rate                         : 2 178 Kbps
Maximum bit rate                 : 11.6 Mbps
Width                            : 1 280 pixels
Height                           : 544 pixels
Display aspect ratio             : 2.35:1
Frame rate mode                  : Variable
Frame rate                       : 23.976 fps
Minimum frame rate               : 19.048 fps
Maximum frame rate               : 24.390 fps
Color space                      : YUV
Chroma subsampling               : 4:2:0
Bit depth                        : 8 bits
Scan type                        : Progressive
Bits/(Pixel*Frame)               : 0.130
Stream size                      : 1.42 GiB (82%)
Writing library                  : x264 core 112
Encoding settings                : cabac=1 / ref=5 / deblock=1:0:0 / analyse=0x3:0x113 / me=hex / subme=7 / psy=1 / psy_rd=1.00:0.00 / mixed_ref=1 / me_range=16 / chroma_me=1 / trellis=1 / 8x8dct=1 / cqm=0 / deadzone=21,11 / fast_pskip=1 / chroma_qp_offset=-2 / threads=3 / sliced_threads=0 / nr=0 / decimate=1 / interlaced=0 / constrained_intra=0 / bframes=5 / b_pyramid=2 / b_adapt=2 / b_bias=0 / direct=1 / weightb=1 / open_gop=0 / weightp=2 / keyint=240 / keyint_min=23 / scenecut=40 / intra_refresh=0 / rc_lookahead=50 / rc=abr / mbtree=1 / bitrate=2178 / ratetol=1.0 / qcomp=0.60 / qpmin=3 / qpmax=51 / qpstep=4 / ip_ratio=1.40 / aq=1:1.00
Encoded date                     : UTC 2012-01-28 00:27:42
Tagged date                      : UTC 2012-01-27 08:08:12
Color primaries                  : BT.709-5, BT.1361, IEC 61966-2-4, SMPTE RP177
Transfer characteristics         : BT.709-5, BT.1361
Matrix coefficients              : BT.709-5, BT.1361, IEC 61966-2-4 709, SMPTE RP177

Audio
ID                               : 2
Format                           : AAC
Format/Info                      : Advanced Audio Codec
Format version                   : Version 4
Format profile                   : LC
Format settings, SBR             : No
Codec ID                         : 40
Duration                         : 1h 37mn
Bit rate mode                    : Variable
Bit rate                         : 448 Kbps
Maximum bit rate                 : 819 Kbps
Channel(s)                       : 6 channels
Channel positions                : Front: L C R, Side: L R, LFE
Sampling rate                    : 48.0 KHz
Stream size                      : 313 MiB (18%)
Language                         : English
Encoded date                     : UTC 2012-01-27 08:07:42
Tagged date                      : UTC 2012-01-27 08:08:12

Enjoy...

[img]http://img713.imageshack.us/img713/4706/daybreakers720pmp4aacbr.png[/img]

[img]http://img837.imageshack.us/img837/4706/daybreakers720pmp4aacbr.png[/img]

[img]http://img252.imageshack.us/img252/4706/daybreakers720pmp4aacbr.png[/img]

[img]http://img9.imageshack.us/img9/4706/daybreakers720pmp4aacbr.png[/img]

[img]http://img810.imageshack.us/img810/4706/daybreakers720pmp4aacbr.png[/img]

[img]http://img252.imageshack.us/img252/3324/daybreakers720pmp4aacbrn.png[/img]